<svg xmlns="http://www.w3.org/2000/svg" width="375" viewBox="0 0 375 375" height="375" version="1.0"><defs><clipPath id="a"><path d="M 113 126.1875 L 262 126.1875 L 262 249.1875 L 113 249.1875 Z M 113 126.1875"/></clipPath></defs><g clip-path="url(#a)"><path fill="#5271FF" d="M 223.621094 189.996094 C 217.765625 189.996094 213.132812 185.347656 213.132812 179.460938 C 213.132812 173.574219 217.765625 168.929688 223.621094 168.929688 C 229.503906 168.929688 234.136719 173.574219 234.136719 179.460938 C 234.441406 185.347656 229.503906 189.996094 223.621094 189.996094 Z M 187.5 189.996094 C 181.632812 189.996094 177 185.347656 177 179.460938 C 177 173.574219 181.632812 168.929688 187.5 168.929688 C 193.367188 168.929688 198 173.574219 198 179.460938 C 198 185.347656 193.367188 189.996094 187.5 189.996094 Z M 151.378906 189.996094 C 145.507812 189.996094 140.875 185.347656 140.875 179.460938 C 140.875 173.574219 145.507812 168.929688 151.378906 168.929688 C 157.234375 168.929688 161.867188 173.574219 161.867188 179.460938 C 161.867188 185.347656 157.234375 189.996094 151.378906 189.996094 Z M 187.5 126.1875 C 146.429688 126.1875 113.386719 150.34375 113.386719 180.082031 C 113.386719 197.109375 124.191406 212.289062 140.875 222.203125 L 133.152344 249.15625 L 168.972656 232.734375 C 174.839844 233.976562 181.011719 234.28125 187.5 234.28125 C 228.570312 234.28125 261.613281 210.125 261.613281 180.386719 C 261.613281 150.648438 228.570312 126.1875 187.5 126.1875"/></g></svg>