<svg xmlns="http://www.w3.org/2000/svg" width="375" viewBox="0 0 375 375" height="375" version="1.0"><path d="M 198.851562 199.050781 C 198.265625 199.636719 197.640625 200.179688 196.976562 200.671875 C 196.308594 201.167969 195.609375 201.613281 194.878906 202.003906 C 194.148438 202.394531 193.394531 202.734375 192.613281 203.015625 C 191.832031 203.296875 191.035156 203.519531 190.222656 203.683594 C 189.410156 203.847656 188.589844 203.949219 187.761719 203.992188 C 186.933594 204.035156 186.105469 204.019531 185.28125 203.941406 C 184.453125 203.863281 183.636719 203.726562 182.832031 203.527344 C 182.027344 203.328125 181.238281 203.074219 180.472656 202.761719 C 179.703125 202.449219 178.964844 202.078125 178.25 201.65625 C 177.535156 201.234375 176.855469 200.761719 176.210938 200.242188 C 175.566406 199.71875 174.964844 199.152344 174.402344 198.539062 C 173.839844 197.929688 173.328125 197.28125 172.863281 196.59375 C 172.394531 195.910156 171.984375 195.191406 171.621094 194.445312 C 171.261719 193.699219 170.957031 192.929688 170.707031 192.136719 C 170.460938 191.347656 170.273438 190.539062 170.144531 189.722656 C 170.015625 188.902344 169.945312 188.078125 169.9375 187.25 C 170 185.003906 170.492188 182.859375 171.410156 180.816406 C 172.332031 178.769531 173.609375 176.980469 175.246094 175.445312 C 176.804688 173.863281 178.605469 172.640625 180.652344 171.78125 C 182.699219 170.921875 184.832031 170.492188 187.050781 170.488281 C 187.601562 170.488281 188.148438 170.519531 188.695312 170.574219 C 189.242188 170.628906 189.785156 170.710938 190.324219 170.820312 C 190.863281 170.925781 191.394531 171.0625 191.921875 171.222656 C 192.449219 171.378906 192.964844 171.566406 193.472656 171.777344 C 193.980469 171.988281 194.476562 172.222656 194.960938 172.480469 C 195.449219 172.738281 195.917969 173.019531 196.375 173.324219 C 196.835938 173.628906 197.277344 173.957031 197.703125 174.304688 C 198.128906 174.652344 198.535156 175.019531 198.925781 175.40625 C 199.316406 175.792969 199.6875 176.199219 200.039062 176.621094 C 200.386719 177.046875 200.71875 177.484375 201.023438 177.941406 C 201.332031 178.398438 201.617188 178.867188 201.878906 179.347656 C 202.140625 179.832031 202.378906 180.328125 202.59375 180.835938 C 202.808594 181.339844 202.996094 181.855469 203.160156 182.382812 C 203.324219 182.90625 203.460938 183.4375 203.574219 183.976562 C 203.6875 184.515625 203.769531 185.058594 203.832031 185.601562 C 203.890625 186.148438 203.921875 186.699219 203.929688 187.25 C 203.894531 189.472656 203.441406 191.609375 202.5625 193.652344 C 201.683594 195.699219 200.445312 197.496094 198.851562 199.050781 Z M 211.246094 187.25 C 211.246094 187.804688 211.273438 188.363281 211.328125 188.917969 C 211.382812 189.476562 211.464844 190.027344 211.574219 190.574219 C 211.683594 191.121094 211.820312 191.664062 211.984375 192.195312 C 212.148438 192.730469 212.335938 193.253906 212.550781 193.769531 C 212.765625 194.285156 213.007812 194.789062 213.269531 195.28125 C 213.535156 195.773438 213.824219 196.25 214.136719 196.714844 C 214.449219 197.175781 214.78125 197.625 215.140625 198.054688 C 215.496094 198.484375 215.871094 198.894531 216.269531 199.289062 C 216.664062 199.679688 217.082031 200.054688 217.515625 200.40625 C 217.949219 200.757812 218.398438 201.085938 218.863281 201.394531 C 219.332031 201.699219 219.8125 201.984375 220.304688 202.242188 C 220.800781 202.503906 221.304688 202.738281 221.824219 202.949219 C 222.339844 203.15625 222.867188 203.339844 223.402344 203.5 C 223.9375 203.65625 224.480469 203.785156 225.03125 203.890625 C 225.578125 203.996094 226.132812 204.070312 226.6875 204.121094 C 227.242188 204.171875 227.800781 204.191406 228.359375 204.1875 C 228.910156 204.183594 229.464844 204.152344 230.011719 204.09375 C 230.5625 204.035156 231.109375 203.953125 231.652344 203.839844 C 232.191406 203.730469 232.726562 203.59375 233.253906 203.429688 C 233.785156 203.265625 234.304688 203.078125 234.8125 202.863281 C 235.324219 202.648438 235.820312 202.410156 236.308594 202.148438 C 236.792969 201.886719 237.269531 201.601562 237.726562 201.292969 C 238.183594 200.984375 238.628906 200.652344 239.054688 200.300781 C 239.480469 199.949219 239.890625 199.578125 240.28125 199.1875 C 240.671875 198.796875 241.039062 198.386719 241.390625 197.957031 C 241.742188 197.53125 242.070312 197.085938 242.375 196.625 C 242.683594 196.167969 242.96875 195.691406 243.226562 195.203125 C 243.488281 194.71875 243.726562 194.21875 243.9375 193.707031 C 244.148438 193.195312 244.335938 192.675781 244.496094 192.148438 C 244.660156 191.617188 244.792969 191.082031 244.902344 190.542969 C 245.011719 190 245.09375 189.453125 245.148438 188.902344 C 245.207031 188.351562 245.234375 187.800781 245.238281 187.25 C 245.238281 186.695312 245.210938 186.140625 245.15625 185.589844 C 245.101562 185.035156 245.019531 184.488281 244.910156 183.945312 C 244.804688 183.398438 244.667969 182.863281 244.507812 182.332031 C 244.347656 181.800781 244.160156 181.277344 243.949219 180.765625 C 243.734375 180.253906 243.5 179.753906 243.238281 179.265625 C 242.976562 178.773438 242.691406 178.300781 242.382812 177.839844 C 242.074219 177.375 241.746094 176.933594 241.390625 176.503906 C 241.039062 176.074219 240.667969 175.664062 240.277344 175.269531 C 239.882812 174.878906 239.472656 174.507812 239.042969 174.15625 C 238.617188 173.804688 238.171875 173.472656 237.710938 173.164062 C 237.25 172.855469 236.773438 172.570312 236.285156 172.308594 C 235.792969 172.050781 235.292969 171.8125 234.78125 171.601562 C 234.269531 171.386719 233.746094 171.199219 233.214844 171.039062 C 232.6875 170.878906 232.148438 170.742188 231.605469 170.636719 C 231.058594 170.527344 230.511719 170.445312 229.960938 170.390625 C 229.40625 170.335938 228.855469 170.308594 228.300781 170.308594 C 227.746094 170.308594 227.191406 170.335938 226.640625 170.390625 C 226.089844 170.445312 225.539062 170.527344 224.996094 170.636719 C 224.453125 170.742188 223.914062 170.878906 223.382812 171.039062 C 222.851562 171.199219 222.332031 171.386719 221.820312 171.601562 C 221.304688 171.8125 220.804688 172.050781 220.316406 172.308594 C 219.828125 172.570312 219.351562 172.855469 218.890625 173.164062 C 218.429688 173.472656 217.984375 173.804688 217.554688 174.15625 C 217.125 174.507812 216.714844 174.878906 216.324219 175.269531 C 215.933594 175.664062 215.558594 176.074219 215.207031 176.503906 C 214.855469 176.933594 214.527344 177.375 214.21875 177.839844 C 213.910156 178.300781 213.625 178.773438 213.363281 179.265625 C 213.101562 179.753906 212.863281 180.253906 212.652344 180.765625 C 212.441406 181.277344 212.253906 181.800781 212.09375 182.332031 C 211.933594 182.863281 211.796875 183.398438 211.6875 183.945312 C 211.582031 184.488281 211.5 185.035156 211.445312 185.589844 C 211.390625 186.140625 211.363281 186.695312 211.363281 187.25 Z M 162.617188 187.25 C 162.617188 186.695312 162.59375 186.140625 162.539062 185.589844 C 162.484375 185.035156 162.402344 184.488281 162.292969 183.945312 C 162.183594 183.398438 162.050781 182.863281 161.890625 182.332031 C 161.730469 181.800781 161.542969 181.277344 161.328125 180.765625 C 161.117188 180.253906 160.878906 179.753906 160.621094 179.265625 C 160.359375 178.773438 160.074219 178.300781 159.765625 177.839844 C 159.457031 177.375 159.125 176.933594 158.773438 176.503906 C 158.421875 176.074219 158.050781 175.664062 157.660156 175.269531 C 157.265625 174.878906 156.855469 174.507812 156.425781 174.15625 C 156 173.804688 155.554688 173.472656 155.09375 173.164062 C 154.628906 172.855469 154.15625 172.570312 153.667969 172.308594 C 153.175781 172.050781 152.675781 171.8125 152.164062 171.601562 C 151.652344 171.386719 151.128906 171.199219 150.597656 171.039062 C 150.066406 170.878906 149.53125 170.742188 148.988281 170.636719 C 148.441406 170.527344 147.894531 170.445312 147.34375 170.390625 C 146.789062 170.335938 146.238281 170.308594 145.683594 170.308594 C 145.128906 170.308594 144.574219 170.335938 144.023438 170.390625 C 143.46875 170.445312 142.921875 170.527344 142.378906 170.636719 C 141.835938 170.742188 141.296875 170.878906 140.765625 171.039062 C 140.234375 171.199219 139.714844 171.386719 139.203125 171.601562 C 138.6875 171.8125 138.1875 172.050781 137.699219 172.308594 C 137.210938 172.570312 136.734375 172.855469 136.273438 173.164062 C 135.8125 173.472656 135.367188 173.804688 134.9375 174.15625 C 134.507812 174.507812 134.097656 174.878906 133.707031 175.269531 C 133.3125 175.664062 132.941406 176.074219 132.589844 176.503906 C 132.238281 176.933594 131.910156 177.375 131.601562 177.839844 C 131.292969 178.300781 131.007812 178.773438 130.746094 179.265625 C 130.484375 179.753906 130.246094 180.253906 130.035156 180.765625 C 129.824219 181.277344 129.636719 181.800781 129.476562 182.332031 C 129.3125 182.863281 129.179688 183.398438 129.070312 183.945312 C 128.964844 184.488281 128.882812 185.035156 128.828125 185.589844 C 128.773438 186.140625 128.746094 186.695312 128.746094 187.25 C 128.792969 189.480469 129.265625 191.621094 130.167969 193.667969 C 131.066406 195.710938 132.324219 197.507812 133.9375 199.050781 C 135.492188 200.640625 137.292969 201.871094 139.335938 202.742188 C 141.382812 203.613281 143.519531 204.054688 145.742188 204.066406 C 146.296875 204.070312 146.847656 204.042969 147.398438 203.992188 C 147.949219 203.941406 148.496094 203.859375 149.039062 203.753906 C 149.582031 203.648438 150.121094 203.515625 150.648438 203.359375 C 151.179688 203.199219 151.703125 203.015625 152.214844 202.808594 C 152.726562 202.597656 153.226562 202.363281 153.714844 202.105469 C 154.207031 201.847656 154.679688 201.5625 155.144531 201.257812 C 155.605469 200.953125 156.050781 200.625 156.480469 200.277344 C 156.910156 199.929688 157.320312 199.558594 157.714844 199.167969 C 158.109375 198.78125 158.480469 198.371094 158.835938 197.945312 C 159.1875 197.519531 159.519531 197.078125 159.828125 196.621094 C 160.140625 196.160156 160.425781 195.6875 160.691406 195.203125 C 160.953125 194.714844 161.195312 194.21875 161.410156 193.707031 C 161.625 193.195312 161.8125 192.679688 161.976562 192.148438 C 162.140625 191.621094 162.277344 191.085938 162.390625 190.542969 C 162.5 190 162.585938 189.453125 162.644531 188.902344 C 162.703125 188.355469 162.734375 187.800781 162.738281 187.25 Z M 162.617188 187.25"/></svg>