<svg xmlns="http://www.w3.org/2000/svg" width="375" viewBox="0 0 375 375" height="375" version="1.0"><defs><clipPath id="a"><path d="M 120 112.5 L 255 112.5 L 255 262.5 L 120 262.5 Z M 120 112.5"/></clipPath></defs><g clip-path="url(#a)"><path fill="#FFDE59" d="M 221.476562 187.949219 L 213.523438 180 L 176.925781 216.601562 L 161.023438 200.699219 L 153.074219 208.648438 L 176.925781 232.5 Z M 240 127.5 L 232.5 127.5 L 232.5 112.5 L 217.5 112.5 L 217.5 127.5 L 157.5 127.5 L 157.5 112.5 L 142.5 112.5 L 142.5 127.5 L 135 127.5 C 126.710938 127.5 120.074219 134.210938 120.074219 142.5 L 120 247.5 C 120 255.789062 126.710938 262.5 135 262.5 L 240 262.5 C 248.289062 262.5 255 255.789062 255 247.5 L 255 142.5 C 255 134.210938 248.289062 127.5 240 127.5 Z M 240 247.5 L 135 247.5 L 135 165 L 240 165 Z M 240 247.5"/></g></svg>