<svg xmlns="http://www.w3.org/2000/svg" xmlns:xlink="http://www.w3.org/1999/xlink" width="375" viewBox="0 0 375 375" height="375" version="1.0"><defs><clipPath id="b"><path d="M 112.5 123 L 260 123 L 260 252.65625 L 112.5 252.65625 Z M 112.5 123"/></clipPath><clipPath id="e"><path d="M 0.480469 49 L 79 49 L 79 114.640625 L 0.480469 114.640625 Z M 0.480469 49"/></clipPath><clipPath id="d"><path d="M0 0H80V115H0z"/></clipPath><filter x="0%" y="0%" width="100%" xmlns:xlink="http://www.w3.org/1999/xlink" xlink:type="simple" xlink:actuate="onLoad" height="100%" id="a" xlink:show="other"><feColorMatrix values="0 0 0 0 1 0 0 0 0 1 0 0 0 0 1 0 0 0 1 0" color-interpolation-filters="sRGB"/></filter><mask id="c"><g filter="url(#a)"><path fill-opacity=".2" d="M-37.5 -37.5H412.5V412.5H-37.5z"/></g></mask></defs><path fill="#FFF" d="M 246.285156 177.9375 L 205.875 177.9375 C 207.433594 171.753906 210.3125 152.046875 210.3125 152.046875 C 209.660156 142.480469 203.25 130.472656 203.25 130.472656 C 195.636719 127.273438 192.214844 131.664062 192.214844 131.664062 C 192.214844 131.664062 192.609375 146.867188 192.609375 150.378906 C 192.609375 153.894531 175.207031 181.980469 170.953125 185.597656 C 168.699219 187.515625 164.65625 190.152344 161.359375 192.199219 L 161.359375 237.527344 L 164 237.53125 C 167.039062 237.53125 170.773438 242.21875 174.890625 242.21875 L 233.1875 242.191406 C 244.90625 242.191406 246.769531 229.011719 239.039062 227.75 L 239.382812 226.292969 C 246.796875 225.496094 251.304688 213.789062 241.84375 211.390625 L 242.191406 209.929688 C 249.265625 209.1875 254.519531 197.824219 244.648438 195.023438 L 244.992188 193.566406 C 254.289062 192.101562 256.183594 177.9375 246.285156 177.9375 Z M 246.285156 177.9375"/><g clip-path="url(#b)"><path fill="#32363B" d="M 254.984375 194.066406 C 262.414062 186.683594 260.117188 171.746094 247.257812 171.746094 L 213.410156 171.769531 C 214.691406 164.609375 216.554688 152.746094 216.476562 151.625 C 215.769531 141.015625 208.988281 128.105469 208.703125 127.574219 C 207.46875 125.277344 201.230469 122.164062 194.953125 123.503906 C 186.832031 125.238281 186.003906 130.402344 186.039062 131.824219 C 186.039062 131.824219 186.394531 145.96875 186.429688 149.734375 C 182.550781 158.246094 169.171875 180.605469 165.113281 182.328125 C 164.148438 181.742188 163.039062 181.429688 161.898438 181.429688 L 119.132812 181.429688 C 115.515625 181.429688 112.582031 184.355469 112.582031 187.96875 L 112.585938 246.980469 C 112.839844 250.164062 115.546875 252.660156 118.746094 252.660156 L 157.140625 252.660156 C 160.546875 252.660156 163.316406 249.894531 163.316406 246.496094 L 163.316406 244.535156 C 163.316406 244.535156 164.746094 244.4375 165.390625 244.847656 C 167.859375 246.414062 170.914062 248.382812 174.890625 248.382812 L 232.214844 248.382812 C 253.628906 248.382812 251.332031 229.394531 249.378906 226.796875 C 252.996094 222.859375 255.238281 215.921875 252.179688 210.433594 C 254.546875 207.953125 258.683594 201.128906 254.984375 194.066406 Z M 254.984375 194.066406"/></g><path fill="#FFF" d="M 246.285156 177.9375 L 205.875 177.9375 C 207.433594 171.753906 210.3125 152.046875 210.3125 152.046875 C 209.660156 142.480469 203.25 130.472656 203.25 130.472656 C 195.636719 127.273438 192.214844 131.664062 192.214844 131.664062 C 192.214844 131.664062 192.609375 146.867188 192.609375 150.378906 C 192.609375 153.894531 175.207031 181.980469 170.953125 185.597656 C 168.699219 187.515625 164.65625 190.152344 161.359375 192.199219 L 161.359375 237.527344 L 164 237.53125 C 167.039062 237.53125 170.773438 242.21875 174.890625 242.21875 L 233.1875 242.191406 C 244.90625 242.191406 246.769531 229.011719 239.039062 227.75 L 239.382812 226.292969 C 246.796875 225.496094 251.304688 213.789062 241.84375 211.390625 L 242.191406 209.929688 C 249.265625 209.1875 254.519531 197.824219 244.648438 195.023438 L 244.992188 193.566406 C 254.289062 192.101562 256.183594 177.9375 246.285156 177.9375 Z M 246.285156 177.9375"/><path fill="#6883B0" d="M 167.175781 238.699219 L 167.175781 188.421875 C 167.089844 188.480469 161.785156 191.9375 161.363281 192.199219 L 161.363281 237.527344 L 164 237.53125 C 164.988281 237.53125 166.050781 238.03125 167.175781 238.699219 Z M 167.175781 238.699219" fill-opacity=".2"/><g mask="url(#c)"><g><g clip-path="url(#d)" transform="translate(174 128)"><g clip-path="url(#e)"><path fill="#6883B0" d="M 70.648438 67.023438 L 70.996094 65.5625 C 80.289062 64.101562 82.183594 49.9375 72.285156 49.9375 L 52.765625 49.9375 C 62.664062 49.9375 60.769531 64.101562 51.472656 65.5625 L 51.324219 66.429688 C 61.199219 69.230469 55.746094 81.183594 48.667969 81.929688 L 48.519531 82.796875 C 57.984375 85.199219 53.277344 97.496094 45.863281 98.292969 L 45.714844 99.15625 C 53.449219 100.421875 51.382812 114.191406 39.667969 114.191406 L 0.777344 114.207031 C 0.816406 114.210938 0.855469 114.21875 0.890625 114.21875 L 59.1875 114.191406 C 70.90625 114.191406 72.769531 101.011719 65.039062 99.75 L 65.382812 98.292969 C 72.796875 97.496094 77.304688 85.789062 67.84375 83.390625 L 68.191406 81.929688 C 75.265625 81.183594 80.519531 69.824219 70.648438 67.023438 Z M 70.648438 67.023438"/></g><path fill="#6883B0" d="M 23.832031 1.308594 C 23.859375 1.417969 28.585938 18.917969 28.585938 21.433594 C 28.585938 23.953125 14.238281 45.316406 16.15625 48.019531 C 18.773438 51.699219 31.875 49.9375 31.875 49.9375 C 33.433594 43.753906 36.3125 24.046875 36.3125 24.046875 C 35.660156 14.480469 29.25 2.472656 29.25 2.472656 C 28.996094 2.367188 26.804688 1.304688 23.832031 1.308594 Z M 23.832031 1.308594"/></g></g></g><path fill="#6883B0" d="M 118.746094 187.597656 L 157.230469 187.597656 L 157.230469 246.492188 L 118.746094 246.492188 Z M 118.746094 187.597656"/><path fill="#758EB3" d="M 154.753906 243.78125 L 121.222656 243.78125 L 121.222656 194.972656 L 154.753906 194.914062 Z M 154.753906 243.78125"/></svg>