<svg xmlns="http://www.w3.org/2000/svg" width="375" viewBox="0 0 375 375" height="375" version="1.0"><defs><clipPath id="a"><path d="M 112.5 129.816406 L 262.5 129.816406 L 262.5 245.316406 L 112.5 245.316406 Z M 112.5 129.816406"/></clipPath></defs><path fill="#004AAD" d="M 187.5 177.816406 C 176.761719 177.816406 168.023438 186.566406 168.023438 197.316406 C 168.023438 208.070312 176.761719 216.816406 187.5 216.816406 C 198.238281 216.816406 206.976562 208.070312 206.976562 197.316406 C 206.976562 186.566406 198.238281 177.816406 187.5 177.816406 Z M 187.5 177.816406"/><g clip-path="url(#a)"><path fill="#004AAD" d="M 242.933594 149.316406 L 220.460938 149.316406 C 220.460938 138.546875 211.742188 129.816406 200.984375 129.816406 L 174.015625 129.816406 C 163.257812 129.816406 154.539062 138.546875 154.539062 149.316406 L 132.066406 149.316406 C 121.3125 149.316406 112.589844 158.046875 112.589844 168.816406 L 112.589844 225.816406 C 112.589844 236.589844 121.3125 245.316406 132.066406 245.316406 L 242.933594 245.316406 C 253.6875 245.316406 262.410156 236.589844 262.410156 225.816406 L 262.410156 168.816406 C 262.410156 158.046875 253.6875 149.316406 242.933594 149.316406 Z M 187.5 231.816406 C 168.5 231.816406 153.042969 216.339844 153.042969 197.316406 C 153.042969 178.296875 168.5 162.816406 187.5 162.816406 C 206.5 162.816406 221.957031 178.296875 221.957031 197.316406 C 221.957031 216.339844 206.5 231.816406 187.5 231.816406 Z M 187.5 231.816406"/></g>
</svg>