<svg xmlns="http://www.w3.org/2000/svg" width="375" viewBox="0 0 375 375" height="375" version="1.0"><defs><clipPath id="a"><path d="M 114 120 L 270 120 L 270 264 L 114 264 Z M 114 120"/></clipPath><clipPath id="b"><path d="M 272.089844 123.511719 L 251.488281 272.089844 L 102.910156 251.488281 L 123.511719 102.910156 Z M 272.089844 123.511719"/></clipPath><clipPath id="c"><path d="M 272.089844 123.511719 L 251.488281 272.089844 L 102.910156 251.488281 L 123.511719 102.910156 Z M 272.089844 123.511719"/></clipPath><clipPath id="d"><path d="M 272.066406 123.679688 L 251.464844 272.257812 L 102.886719 251.660156 L 123.488281 103.078125 Z M 272.066406 123.679688"/></clipPath><clipPath id="e"><path d="M 272.066406 123.679688 L 251.515625 271.914062 L 102.933594 251.316406 L 123.488281 103.078125 Z M 272.066406 123.679688"/></clipPath></defs><g clip-path="url(#a)"><g clip-path="url(#b)"><g clip-path="url(#c)"><g clip-path="url(#d)"><g clip-path="url(#e)"><path fill="#5271FF" d="M 192.210938 251.753906 C 189.582031 251.214844 187.628906 249.007812 187.410156 246.328125 L 183.757812 201.5 C 183.597656 199.445312 184.492188 197.460938 186.132812 196.207031 L 251.824219 146.417969 C 252.332031 145.976562 253.089844 146.027344 253.53125 146.53125 C 253.890625 146.945312 253.925781 147.554688 253.609375 147.996094 L 198.730469 248.757812 C 197.453125 251.082031 194.8125 252.289062 192.210938 251.753906 Z M 209.402344 254.5 L 267.566406 147.683594 C 271.199219 140.996094 270.269531 132.761719 265.238281 127.046875 C 260.566406 121.976562 253.488281 119.878906 246.789062 121.558594 L 129.046875 148.296875 C 121.679688 149.855469 116.09375 155.914062 115.128906 163.375 L 114.933594 164.757812 C 114.265625 172.785156 119.089844 180.273438 126.675781 182.976562 L 164.308594 196.609375 C 168.707031 198.242188 171.765625 202.28125 172.136719 206.957031 L 175.414062 246.265625 C 175.945312 254.445312 181.726562 261.351562 189.695312 263.304688 C 197.480469 265.027344 205.480469 261.457031 209.402344 254.5"/></g></g></g></g></g></svg>