<svg xmlns="http://www.w3.org/2000/svg" width="375" viewBox="0 0 375 375" height="375" version="1.0"><defs><clipPath id="a"><path d="M 7.273438 53.457031 L 366.523438 53.457031 L 366.523438 321 L 7.273438 321 Z M 7.273438 53.457031"/></clipPath></defs><g clip-path="url(#a)"><path fill="#A6A6A6" d="M 356.507812 99.632812 C 353.1875 81.261719 337.363281 67.886719 319 63.710938 C 291.519531 57.867188 240.660156 53.691406 185.636719 53.691406 C 130.644531 53.691406 78.972656 57.867188 51.457031 63.710938 C 33.125 67.886719 17.269531 80.414062 13.949219 99.632812 C 10.59375 120.511719 7.273438 149.746094 7.273438 187.332031 C 7.273438 224.917969 10.59375 254.152344 14.761719 275.03125 C 18.117188 293.402344 33.941406 306.777344 52.273438 310.957031 C 81.445312 316.796875 131.457031 320.972656 186.484375 320.972656 C 241.507812 320.972656 291.519531 316.796875 320.695312 310.957031 C 339.023438 306.777344 354.847656 294.25 358.203125 275.03125 C 361.523438 254.152344 365.691406 224.070312 366.539062 187.332031 C 364.84375 149.746094 360.675781 120.511719 356.507812 99.632812 Z M 140.640625 245.800781 L 140.640625 128.863281 L 242.324219 187.332031 Z M 140.640625 245.800781"/></g></svg>