<svg xmlns="http://www.w3.org/2000/svg" width="375" viewBox="0 0 375 375" height="375" version="1.0"><defs><clipPath id="a"><path d="M 112.5 123.171875 L 262.5 123.171875 L 262.5 273.171875 L 112.5 273.171875 Z M 112.5 123.171875"/></clipPath></defs><g clip-path="url(#a)"><path fill="#5271FF" d="M 215.625 166.921875 L 251.832031 166.921875 L 213.417969 128.507812 C 212.199219 127.289062 212.199219 125.308594 213.417969 124.089844 C 214.636719 122.871094 216.617188 122.871094 217.835938 124.089844 L 261.585938 167.839844 C 261.613281 167.867188 261.617188 167.902344 261.648438 167.929688 C 261.898438 168.195312 262.117188 168.503906 262.261719 168.847656 C 262.582031 169.617188 262.582031 170.476562 262.261719 171.246094 C 262.175781 171.453125 262.023438 171.609375 261.898438 171.789062 C 261.792969 171.945312 261.730469 172.117188 261.59375 172.253906 L 217.84375 216.003906 C 217.226562 216.617188 216.425781 216.921875 215.625 216.921875 C 214.824219 216.921875 214.023438 216.617188 213.417969 216.003906 C 212.199219 214.785156 212.199219 212.804688 213.417969 211.585938 L 251.832031 173.171875 L 215.625 173.171875 C 162.207031 173.171875 118.75 216.628906 118.75 270.046875 C 118.75 271.773438 117.351562 273.171875 115.625 273.171875 C 113.898438 273.171875 112.5 271.773438 112.5 270.046875 C 112.5 213.183594 158.761719 166.921875 215.625 166.921875 Z M 215.625 166.921875"/></g></svg>