<svg xmlns="http://www.w3.org/2000/svg" width="375" viewBox="0 0 375 375" height="375" version="1.0"><defs><clipPath id="a"><path d="M 112.5 112.5 L 262.5 112.5 L 262.5 262.5 L 112.5 262.5 Z M 112.5 112.5"/></clipPath></defs><g clip-path="url(#a)"><path fill="#7ED957" d="M 187.5 112.5 C 146.144531 112.5 112.5 146.144531 112.5 187.5 C 112.5 228.855469 146.144531 262.5 187.5 262.5 C 228.855469 262.5 262.5 228.855469 262.5 187.5 C 262.5 146.144531 228.855469 112.5 187.5 112.5 Z M 220.871094 189.296875 C 220.390625 191.085938 219.246094 192.578125 217.644531 193.503906 L 177.628906 216.605469 C 176.578125 217.214844 175.378906 217.53125 174.164062 217.53125 C 170.339844 217.53125 167.230469 214.425781 167.230469 210.601562 L 167.230469 164.402344 C 167.230469 163.1875 167.550781 161.988281 168.15625 160.933594 C 169.996094 157.742188 174.425781 156.546875 177.628906 158.398438 L 217.640625 181.5 C 218.695312 182.105469 219.570312 182.988281 220.175781 184.035156 C 221.101562 185.636719 221.359375 187.507812 220.871094 189.296875 Z M 220.871094 189.296875"/></g></svg>